# xmcd
# 
# Track frame offsets:
#     150
#     10812
#     18492
#     24825
#     31189
#     40458
#     50474
#     59654
#     69056
#     75469
#     81963
#     92666
#     98983
#     106888
#     114731
#     121861
#     134117
#     146495
#     151919
#     156735
#     169128
#     178590
#     209253
#     250822
#     258498
#     284736
# 
# Disc length: 3932
# 
# Revision: 1
# Processed by: cddbd v1.5.2PL0 Copyright (c) Steve Scherf et al.
# Submitted via: BonkEnc v1.0.8
# 
DISCID=6b0f5a1a
DTITLE=Frank Sikora - Die neue Jazz-Harmonielehre II
DYEAR=2003
DGENRE=Jazz
TTITLE0=Diatonische Funktionen in Bb-Dur
TTITLE1=Diatonische Vollkadenz in Eb-Dur
TTITLE2=Vollkadenz mit Zwischendominanten in G-Dur
TTITLE3=Vollkadenz mit Zwischendominanten in F-Dur
TTITLE4=Vollkadenz mit Zwischendominanten in Ab-Dur
TTITLE5=Vollkadenz mit sekundären II-V-Verbindungen in Bb-Dur
TTITLE6=Vollkadenz in C-Moll
TTITLE7=Grundkadenz in C-Moll
TTITLE8=II-V-I-Verbindungen in C-Dur (mit verschiedenen Farben für II und V)
TTITLE9=Turnaround in G-Moll (mit verschiedenen II. und V. Stufen)
TTITLE10=Substitutdominanten
TTITLE11=Verminderte Akkordfunktionen (1)
TTITLE12=Verminderte Akkordfunktionen (2)
TTITLE13=Dorische Kadenz in C-Moll (I-IV)
TTITLE14=Phrygische Kadenz (in F-Moll) und Modal Interchange (bIImaj7) in F-Dur
TTITLE15=Alle wichtigen MI-Funktionen in C-Dur
TTITLE16=Turnaround in F-Dur (zum Thema "Guide Tone Lines")
TTITLE17=Diatonische Funktionsreihe in Eb-Dur
TTITLE18=Diatonische Funktionen in G-Melodisch Moll
TTITLE19=Random Chords
TTITLE20=Nocturne Nr. 4 (harmonic disaster - mitteltönige Stimmung)
TTITLE21="The More I See You" (Hank Mobley)
TTITLE22="Moving Out" (Isla Eckinger)
TTITLE23="Waltz Forever" (Joe Haider)
TTITLE24="Walking Tiptoe" (Bert Joris)
TTITLE25=Daten zum Buch
EXTD=YEAR: 2003
EXTT0=
EXTT1=
EXTT2=
EXTT3=
EXTT4=
EXTT5=
EXTT6=
EXTT7=
EXTT8=
EXTT9=
EXTT10=
EXTT11=
EXTT12=
EXTT13=
EXTT14=
EXTT15=
EXTT16=
EXTT17=
EXTT18=
EXTT19=
EXTT20=
EXTT21=
EXTT22=
EXTT23=
EXTT24=
EXTT25=
PLAYORDER=
